<svg width="180" height="35" viewBox="0 0 180 35" fill="none" xmlns="http://www.w3.org/2000/svg">
<g clip-path="url(#clip0)">
<path d="M7.02905 35H173.668C174.722 35.0001 175.759 34.7381 176.685 34.2378C177.611 33.7376 178.397 33.0149 178.971 32.1354C179.546 31.2559 179.891 30.2475 179.975 29.2016C180.059 28.1557 179.879 27.1056 179.452 26.1464L169.67 4.1636C169.119 2.92439 168.218 1.87129 167.077 1.13219C165.936 0.393082 164.604 -0.000232938 163.243 1.03499e-07H7.02905C5.16483 1.03499e-07 3.37697 0.737498 2.05876 2.05025C0.740559 3.36301 0 5.14348 0 7L0 28C0 29.8565 0.740559 31.637 2.05876 32.9497C3.37697 34.2625 5.16483 35 7.02905 35Z" fill="#4444CF"/>
<path d="M18.4068 19.919H22.7929C22.6852 20.6797 22.4525 21.4176 22.1041 22.103C21.76 22.7772 21.2817 23.3745 20.6982 23.8586C20.0564 24.38 19.322 24.777 18.5333 25.029C17.5931 25.3282 16.6102 25.4729 15.6233 25.4574C14.5276 25.4786 13.4394 25.2746 12.4265 24.8582C11.5457 24.4906 10.7504 23.9464 10.09 23.2594C9.46524 22.594 8.98647 21.8064 8.68419 20.9466C8.05058 19.1746 8.05058 17.239 8.68419 15.467C8.98647 14.6072 9.46524 13.8196 10.09 13.1542C10.7504 12.4672 11.5457 11.923 12.4265 11.5554C13.4394 11.139 14.5276 10.9351 15.6233 10.9562C16.6575 10.9335 17.6872 11.0976 18.6626 11.4406C19.4597 11.7281 20.1945 12.1643 20.8276 12.7258C21.3982 13.2392 21.8575 13.8633 22.1772 14.5598C22.4922 15.2434 22.6935 15.9734 22.7732 16.7214H18.3787C18.3042 16.1546 18.0362 15.6306 17.6195 15.2374C17.2062 14.8566 16.5539 14.6774 15.6514 14.6774C15.1822 14.6658 14.7167 14.7616 14.2906 14.9574C13.9145 15.1364 13.5853 15.4 13.329 15.7274C13.0735 16.0628 12.8828 16.4426 12.7667 16.8474C12.5154 17.7345 12.5154 18.6735 12.7667 19.5606C12.8799 19.9665 13.0709 20.3468 13.329 20.6806C13.5991 21.0164 13.9449 21.2841 14.3384 21.4618C14.804 21.6613 15.3078 21.7569 15.8145 21.7418C16.5792 21.7418 17.1528 21.5841 17.5352 21.2686C17.9508 20.9123 18.2536 20.4434 18.4068 19.919ZM49.6833 14.8398C50.0148 15.5966 50.1853 16.4137 50.1837 17.2394C50.1837 17.5194 50.1837 17.8302 50.1697 18.1522C50.1534 18.5281 50.1102 18.9024 50.0403 19.2722H40.0928C40.1099 19.6727 40.1721 20.07 40.2784 20.4566C40.378 20.814 40.5545 21.1455 40.7957 21.4282C41.0514 21.7148 41.3698 21.9389 41.7264 22.0834C42.1831 22.2595 42.6707 22.3423 43.1603 22.327C43.7731 22.3676 44.3824 22.2073 44.8951 21.8706C45.2714 21.5851 45.5549 21.1956 45.7104 20.7506H50.0122C49.9163 21.399 49.6866 22.0206 49.3374 22.5762C48.9701 23.1618 48.4927 23.6714 47.9316 24.077C47.3045 24.5259 46.6072 24.8684 45.8679 25.0906C43.9369 25.627 41.8879 25.5674 39.9916 24.9198C39.1201 24.6042 38.3299 24.0995 37.6783 23.4424C37.0267 22.7852 36.53 21.992 36.224 21.1202C35.8891 20.1831 35.7235 19.1944 35.7348 18.1998C35.7264 17.2368 35.8872 16.2797 36.21 15.3718C36.5135 14.5168 36.9922 13.7339 37.6158 13.073C38.2626 12.4004 39.0443 11.8709 39.9101 11.519C40.9172 11.1237 41.9937 10.9333 43.0759 10.959C44.0795 10.9468 45.0764 11.1235 46.0141 11.4798C46.8427 11.7944 47.6055 12.2596 48.2634 12.8518C48.8696 13.4096 49.3531 14.0865 49.6833 14.8398ZM45.8847 16.7494C45.9057 16.3623 45.8464 15.9751 45.7104 15.6119C45.5745 15.2487 45.3649 14.9172 45.0947 14.6382C44.8227 14.379 44.501 14.1772 44.1488 14.0449C43.7965 13.9126 43.4211 13.8525 43.045 13.8682C42.2693 13.8379 41.5112 14.1033 40.925 14.6102C40.3627 15.1067 40.0816 15.8198 40.0816 16.7494H45.8847ZM62.6251 5.4458H67.0113V25.0878H63.3168L62.6251 23.1446C62.4461 23.4796 62.2145 23.7839 61.9391 24.0462C61.6437 24.3276 61.3107 24.5669 60.9494 24.7574C60.5624 24.963 60.1542 25.1264 59.732 25.2446C59.303 25.3661 58.8593 25.4283 58.4133 25.4294C57.4708 25.4397 56.537 25.2487 55.6748 24.8694C54.8664 24.516 54.1391 24.0014 53.538 23.3574C52.9312 22.6948 52.4637 21.9179 52.1631 21.0726C51.5145 19.2147 51.5145 17.1933 52.1631 15.3354C52.4637 14.4901 52.9312 13.7132 53.538 13.0506C54.1391 12.4066 54.8664 11.892 55.6748 11.5386C56.537 11.1593 57.4708 10.9683 58.4133 10.9786C58.8593 10.9797 59.303 11.0419 59.732 11.1634C60.1564 11.2814 60.5652 11.4497 60.9494 11.6646C61.3124 11.8648 61.6455 12.1146 61.9391 12.4066C62.2076 12.6686 62.4385 12.9664 62.6251 13.2914V5.4458ZM62.6251 18.2082C62.6278 17.7492 62.5458 17.2937 62.3833 16.8642C62.2276 16.4536 61.999 16.0743 61.7085 15.7442C61.4215 15.4188 61.0703 15.1557 60.6767 14.9714C60.2529 14.7832 59.794 14.6859 59.3299 14.6859C58.8659 14.6859 58.407 14.7832 57.9832 14.9714C57.5896 15.1557 57.2383 15.4188 56.9513 15.7442C56.3523 16.4225 56.025 17.2966 56.0319 18.1998C56.0299 18.6626 56.1128 19.1219 56.2765 19.555C56.4276 19.9678 56.6566 20.348 56.9513 20.675C57.2413 20.9936 57.592 21.2516 57.9832 21.4338C58.407 21.622 58.8659 21.7193 59.3299 21.7193C59.794 21.7193 60.2529 21.622 60.6767 21.4338C61.0678 21.2516 61.4186 20.9936 61.7085 20.675C62.0032 20.348 62.2323 19.9678 62.3833 19.555C62.5449 19.1214 62.6268 18.6623 62.6251 18.1998V18.2082ZM82.5876 14.8482C82.9192 15.605 83.0897 16.4221 83.0881 17.2478C83.0881 17.5278 83.0881 17.8386 83.0741 18.1606C83.0578 18.5365 83.0146 18.9108 82.9447 19.2806H73.0028C73.0199 19.6811 73.0821 20.0784 73.1884 20.465C73.288 20.8224 73.4646 21.1539 73.7057 21.4366C73.9614 21.7232 74.2798 21.9473 74.6364 22.0918C75.0931 22.2679 75.5808 22.3507 76.0703 22.3354C76.6831 22.376 77.2924 22.2157 77.8051 21.879C78.1814 21.5935 78.465 21.204 78.6205 20.759H82.9222C82.8264 21.4074 82.5966 22.029 82.2474 22.5846C81.8807 23.1707 81.4033 23.6804 80.8416 24.0854C80.2149 24.5348 79.5174 24.8773 78.7779 25.099C76.8484 25.6406 74.7992 25.5859 72.9016 24.9422C72.0301 24.6266 71.2399 24.1219 70.5883 23.4648C69.9367 22.8076 69.44 22.0144 69.134 21.1426C68.7965 20.1985 68.6308 19.2019 68.6448 18.1998C68.6369 17.237 68.7967 16.2802 69.1172 15.3718C69.4233 14.505 69.9121 13.7135 70.5508 13.0504C71.1894 12.3874 71.9632 11.8681 72.8201 11.5274C73.8271 11.1318 74.9037 10.9414 75.986 10.9674C76.9881 10.9522 77.9841 11.1261 78.9213 11.4798C79.7501 11.794 80.5129 12.2593 81.1706 12.8518C81.7778 13.4093 82.2623 14.0863 82.5933 14.8398L82.5876 14.8482ZM78.7892 16.7606C78.8101 16.3735 78.7508 15.9863 78.6148 15.6231C78.4789 15.2599 78.2693 14.9284 77.9991 14.6494C77.7271 14.3902 77.4054 14.1884 77.0532 14.0561C76.7009 13.9238 76.3255 13.8637 75.9494 13.8794C75.1737 13.8491 74.4156 14.1145 73.8294 14.6214C73.2671 15.117 72.986 15.831 72.986 16.7606H78.7892ZM97.627 12.5606C97.2209 12.0469 96.6868 11.6482 96.0778 11.4042C95.2538 11.0998 94.3775 10.9606 93.4993 10.9947C92.6211 11.0289 91.7583 11.2356 90.9607 11.603C90.2152 11.9841 89.6085 12.5883 89.2259 13.3306V11.3258H84.8426V25.0878H89.2259V18.1774C89.2259 17.1134 89.448 16.265 89.8866 15.6378C90.3252 15.0106 90.9944 14.6942 91.8941 14.6942C92.7938 14.6942 93.4461 15.005 93.8004 15.6238C94.1816 16.3688 94.3637 17.1991 94.329 18.0346V25.0878H98.7151V16.923C98.7276 16.078 98.656 15.2339 98.5014 14.403C98.3679 13.7245 98.0675 13.0895 97.627 12.555V12.5606ZM108.564 21.823C108.313 21.8252 108.063 21.797 107.819 21.739C107.594 21.6827 107.387 21.57 107.217 21.4114C107.025 21.2167 106.886 20.9755 106.815 20.7114C106.708 20.3127 106.659 19.9005 106.672 19.4878V14.5822H109.824V11.3258H106.672V6.899H105.435L100.135 13.3922V14.5822H102.314V20.4622C102.314 21.6046 102.471 22.5034 102.786 23.1586C103.044 23.7474 103.462 24.2526 103.993 24.6174C104.471 24.928 105.014 25.127 105.581 25.1998C106.123 25.2751 106.67 25.3135 107.217 25.3146C107.866 25.3146 108.434 25.2913 108.921 25.2446C109.411 25.197 109.815 25.1438 110.142 25.0878V21.7474C109.896 21.7979 109.645 21.8214 109.394 21.8174L108.564 21.823ZM112.582 25.0878H116.963V11.3258H112.576L112.582 25.0878ZM130.635 11.3258H134.33V25.0878H130.635L129.944 23.1446C129.764 23.4796 129.531 23.784 129.255 24.0462C128.96 24.3276 128.627 24.5669 128.265 24.7574C127.878 24.9635 127.47 25.1269 127.048 25.2446C126.619 25.3663 126.175 25.4285 125.729 25.4294C124.787 25.4394 123.853 25.2485 122.991 24.8694C122.183 24.5162 121.457 24.0016 120.857 23.3574C120.249 22.6948 119.781 21.918 119.479 21.0726C118.83 19.2147 118.83 17.1933 119.479 15.3354C119.781 14.49 120.249 13.7132 120.857 13.0506C121.457 12.4064 122.183 11.8918 122.991 11.5386C123.853 11.1595 124.787 10.9686 125.729 10.9786C126.175 10.9795 126.619 11.0417 127.048 11.1634C127.472 11.2809 127.881 11.4492 128.265 11.6646C128.628 11.8648 128.961 12.1146 129.255 12.4066C129.524 12.6686 129.756 12.9663 129.944 13.2914L130.635 11.3258ZM129.944 18.1998C129.95 17.2972 129.624 16.4237 129.027 15.7442C128.74 15.4195 128.388 15.1565 127.995 14.9714C127.571 14.7831 127.112 14.6858 126.647 14.6858C126.183 14.6858 125.723 14.7831 125.299 14.9714C124.907 15.1589 124.557 15.4248 124.273 15.7526C123.982 16.0827 123.754 16.462 123.598 16.8726C123.435 17.3021 123.354 17.7576 123.356 18.2166C123.355 18.6791 123.436 19.1382 123.598 19.5718C123.749 19.9846 123.978 20.3648 124.273 20.6918C124.563 21.0104 124.913 21.2684 125.305 21.4506C125.729 21.6389 126.188 21.7362 126.653 21.7362C127.117 21.7362 127.577 21.6389 128.001 21.4506C128.392 21.2677 128.742 21.0098 129.033 20.6918C129.326 20.3639 129.554 19.9839 129.705 19.5718C129.869 19.133 129.95 18.6679 129.944 18.1998ZM137.063 25.0878H141.449V5.4458H137.063V25.0878ZM144.19 25.0878H148.576V5.4458H144.19V25.0878ZM160.748 11.3258V18.2362C160.748 19.3002 160.531 20.1486 160.101 20.7758C159.671 21.403 158.999 21.7194 158.08 21.7194C157.16 21.7194 156.528 21.4086 156.173 20.7898C155.792 20.0448 155.61 19.2145 155.645 18.379V11.3258H151.287V19.2918C151.273 20.1195 151.34 20.9465 151.486 21.7614C151.626 22.4173 151.922 23.0302 152.349 23.549C152.775 24.0678 153.32 24.4773 153.938 24.7434C154.692 25.0627 155.506 25.2183 156.325 25.1998C157.264 25.2256 158.196 25.0198 159.036 24.6006C159.771 24.2231 160.368 23.6245 160.742 22.8898V25.715C160.742 26.7827 160.503 27.5201 160.025 27.927C159.465 28.361 158.766 28.5788 158.057 28.5402C157.388 28.559 156.734 28.3418 156.21 27.927C155.951 27.7075 155.743 27.434 155.602 27.1258C155.46 26.8176 155.389 26.4822 155.392 26.1434H151.006C150.985 26.9806 151.171 27.8102 151.545 28.5598C151.878 29.2126 152.341 29.7909 152.906 30.2594C153.544 30.7682 154.281 31.1382 155.071 31.3458C157.042 31.8073 159.094 31.8016 161.063 31.329C161.855 31.1124 162.592 30.7306 163.225 30.209C163.842 29.6818 164.324 29.0157 164.631 28.2658C164.993 27.3686 165.169 26.4075 165.148 25.4406V11.3258H160.748ZM30.3393 11.9698L29.0572 13.9998V11.3258H24.6711V25.0878H29.0572V15.607H34.8829L34.9194 11.3258H31.5089C31.2752 11.326 31.0454 11.3852 30.8408 11.4978C30.6363 11.6104 30.4638 11.7728 30.3393 11.9698ZM112.582 10.1554H116.963V6.899H114.657L112.582 10.1554Z" fill="white"/>
</g>
<defs>
<clipPath id="clip0">
<rect width="180" height="35" fill="white"/>
</clipPath>
</defs>
</svg>
